<?xml version="1.0" encoding="UTF-8"?>
<svg xmlns="http://www.w3.org/2000/svg" viewBox="0 0 1199.99985 478.04765">
  <g style="isolation: isolate;">
    <g id="Layer_2" data-name="Layer 2">
      <g id="Layer_1-2" data-name="Layer 1">
        <g>
          <polygon points="119.77955 394.15461 119.7137 424.84051 2.11677 468.25356 0 470.37066 0 478.04765 227.45025 478.04765 227.45025 394.32825 119.77955 394.15461" style="fill: #f3030e;"/>
          <g>
            <polygon points="215.59286 267.08761 215.59286 265.15792 215.3792 265.15792 215.38762 267.08761 215.59286 267.08761" style="fill: #ffc78c; mix-blend-mode: multiply;"/>
            <polygon points="215.3792 264.46556 215.34834 255.33712 2.11013 255.33712 2.11013 264.46556 215.3792 264.46556" style="fill: #ffc78c;"/>
            <polygon points="215.59286 289.2235 215.48433 289.2235 215.52848 299.32631 215.59286 299.32631 215.59286 289.2235" style="fill: #ffc78c; mix-blend-mode: multiply;"/>
            <g>
              <polygon points="120.68674 313.46891 215.48433 313.57197 215.52848 297.08962 192.81853 297.08962 2.11677 322.50093 2.11677 329.21211 14.246 329.21211 120.68674 313.46891" style="fill: #ffc78c;"/>
              <polygon points="236.03737 339.15987 189.81817 339.15987 2.11013 384.53971 2.11013 394.32825 236.06601 394.32825 236.03737 339.15987" style="fill: #ffc78c;"/>
            </g>
          </g>
          <path d="m215.3792,327.94287h20.66777l.04993,66.38538h624.77292l.03335-138.94034H215.3792v72.55496Zm478.72157-63.23857h91.94874l.0062,30.26382h-91.82561l-.12934-30.26382Zm.13552,65.33559h91.81322v9.11998s-91.81322,0-91.81322,0v-9.11998Zm-178.56574-65.31846h169.18378v45.00385h-169.18378v-45.00385Zm0,65.42385h169.18319v27.94505h-169.18319v-27.94505Zm-99.78448-65.44098l91.82562.01713v30.24669h-91.82561v-30.26382Zm.00001,65.35534h91.82561v9.10023h-91.82562v-9.10023Z" style="fill: #ff6917;"/>
          <polygon points="72.07538 2.11677 72.07538 9.33795 69.38424 9.33795 69.38424 14.43779 71.57631 14.43779 71.57631 60.66067 863.08431 60.66067 863.08431 2.11677 72.07538 2.11677" style="fill: #fffe00;"/>
          <polygon points="1130.61531 9.33795 1128.82899 9.33795 1128.82899 2.11677 863.08431 2.13301 863.08431 60.66067 1127.20892 60.66067 1127.20892 14.43779 1130.61531 14.43779 1130.61531 9.33795" style="fill: #d2c8b4;"/>
          <polygon points="0 60.71073 0 69.51311 189.80075 122.18276 234.06574 122.18276 234.06574 127.21615 415.88609 127.21615 415.88609 122.18276 507.71171 122.18276 507.7117 127.21615 515.67056 127.19843 515.67056 93.39032 686.97111 93.39032 686.97111 127.19843 694.23629 127.21615 694.23629 122.18276 786.04951 122.18276 786.04951 127.21615 967.86986 127.19771 967.86986 122.18276 1008.80877 122.18276 1199.99984 69.51311 1199.99985 60.71073 0 60.71073" style="fill: #aac8ff;"/>
          <polygon points="1008.79135 339.15987 967.80134 339.20236 967.80134 330.05964 987.3245 330.05964 987.32419 264.7043 1197.88307 264.72143 1197.88307 255.38791 860.90316 255.38791 860.86981 394.32825 1197.88308 394.32825 1197.88308 384.63948 1008.79135 339.15987" style="fill: #3a4bcc;"/>
          <polygon points="1080.65412 426.90374 1080.72086 392.21148 976.60214 392.21148 976.60214 478.04765 1197.88307 478.04765 1197.88307 468.71928 1080.65412 426.90374" style="fill: #aac8ff;"/>
          <polygon points="786.04953 394.32825 786.04951 398.98349 415.88609 398.98349 415.88609 394.32825 227.45025 394.32825 227.45025 478.04765 976.60214 478.04765 976.60214 394.32825 786.04953 394.32825" style="fill: #bea5e6;"/>
          <path d="m1199.99985,136.54967v-9.51735s-1197.88307.18383-1197.88307.18383v9.33352l187.73682,32.77881h44.21214v21.97377H2.11679v9.33367l187.751,13.64739,44.19797.00083v36.45561h-36.75907L2.11679,255.49411l1195.76628-.15655-190.16781-4.41501-39.80717.05373-.03823-36.69101,39.8454.00395,192.28458-13.6533v-9.51737l-232.12998.1837v-21.97377l39.8454-.07457,192.28459-32.70425Zm-684.32929,14.15001h169.18378l-.07514,40.54838h-169.10865v-40.54838Zm-7.95886,100.22306h-91.76059l-.06501-36.63848,91.82561.00013v36.63835Zm-91.76878-59.62048l-.05683-21.97377h91.82562v21.91958l-91.76879.05419Zm268.91142,60.74336h-169.18378v-46.33171h169.18378v46.33171Zm101.20138-1.12298l-91.81942.00004v-36.63759l91.81323.00011.00619,36.63744Zm0-59.62037h-91.95495v-21.97377h91.94876l.00619,21.97377Z" style="fill: #bea5e6;"/>
          <rect x="515.40833" y="93.25216" width="169.18319" height="33.80811" style="fill: #d9d9d9;"/>
          <rect x="515.40833" y="150.56152" width="169.18319" height="40.54838" style="fill: #d9d9d9;"/>
          <rect x="515.40833" y="205.57574" width="169.18319" height="46.33171" style="fill: #d9d9d9;"/>
          <rect x="515.67056" y="264.72143" width="168.92096" height="45.00385" style="fill: #d9d9d9;"/>
          <rect x="515.67056" y="330.14528" width="169.18319" height="27.94505" style="fill: #d9d9d9;"/>
          <g>
            <polygon points="234.06576 339.15987 189.81817 339.15987 .80944 384.85416 1.30674 386.91187 190.07037 341.27665 234.06576 341.27665 234.06576 339.15987" style="fill: #222221;"/>
            <g>
              <rect x="415.88607" y="339.15987" width="91.82562" height="2.11677" style="fill: #222221;"/>
              <g>
                <rect x="694.23629" y="339.15987" width="91.81323" height="2.11677" style="fill: #222221;"/>
                <polygon points="1008.91302 339.18911 1008.79135 339.15987 967.86984 339.15987 967.86984 341.27665 1008.54063 341.27665 1198.69428 386.91216 1199.18803 384.85386 1008.91302 339.18911" style="fill: #222221;"/>
              </g>
            </g>
          </g>
          <g>
            <polygon points="985.20741 263.66305 985.20741 320.48042 965.11919 316.25987 954.82503 316.25987 987.32419 323.088 987.32419 263.66305 985.20741 263.66305" style="fill: #222221;"/>
            <g>
              <rect x="415.88609" y="294.96812" width="91.82561" height="2.11677" style="fill: #222221;"/>
              <rect x="694.23011" y="294.96812" width="91.82561" height="2.11677" style="fill: #222221;"/>
              <polygon points="236.18251 316.25987 236.18251 316.1041 215.51475 320.47836 215.51475 264.11251 213.39798 264.11251 213.39798 323.09007 245.6696 316.25987 236.18251 316.25987" style="fill: #222221;"/>
            </g>
          </g>
          <g>
            <polygon points="1085.13689 426.93918 1078.98517 426.93918 1198.57704 470.76623 1199.30527 468.7788 1085.13689 426.93918" style="fill: #222221;"/>
            <g>
              <polygon points="114.69137 428.49889 114.69137 426.69459 .69161 468.77968 1.42457 470.76534 115.91609 428.49889 114.69137 428.49889" style="fill: #222221;"/>
              <rect x="415.88609" y="398.98349" width="370.16343" height="2.11677" style="fill: #222221;"/>
            </g>
          </g>
          <g>
            <rect x="694.23629" y="120.06599" width="93.93001" height="2.11677" style="fill: #222221;"/>
            <polygon points="1198.6612 67.91552 1008.5235 120.06599 967.86986 120.06599 967.86986 122.18276 1008.80877 122.18276 1199.22111 69.95699 1198.6612 67.91552" style="fill: #222221;"/>
          </g>
          <g>
            <g>
              <rect x="692.11952" y="167.21171" width="93.93001" height="2.11677" style="fill: #222221;"/>
              <polygon points="1198.76249 134.64803 1008.57666 167.21171 967.86986 167.21171 967.86986 169.32848 1008.75591 169.32848 1199.11982 136.73438 1198.76249 134.64803" style="fill: #222221;"/>
            </g>
            <g>
              <polygon points="234.06576 167.21171 190.03493 167.21171 1.23793 134.64832 .87825 136.73424 189.76443 169.31298 189.85361 169.32848 234.06576 169.32848 234.06576 167.21171" style="fill: #222221;"/>
              <rect x="415.88609" y="167.21171" width="93.94238" height="2.11677" style="fill: #222221;"/>
            </g>
          </g>
          <g>
            <g>
              <rect x="694.23629" y="212.16935" width="91.81323" height="2.11578" style="fill: #222221;"/>
              <polygon points="1198.86556 198.52181 1008.62834 212.16935 967.86986 212.16935 967.86986 214.28527 1008.70394 214.28612 1199.01705 200.63311 1198.86556 198.52181" style="fill: #222221;"/>
            </g>
            <g>
              <polygon points="234.06576 212.16935 189.98296 212.16935 1.13428 198.52195 .9819 200.63311 189.86779 214.28331 234.06576 214.28414 234.06576 212.16935" style="fill: #222221;"/>
              <rect x="415.88609" y="212.16935" width="91.82561" height="2.11497" style="fill: #222221;"/>
            </g>
          </g>
          <g>
            <g>
              <rect x="694.23629" y="250.92264" width="93.93001" height="2.11648" style="fill: #222221;"/>
              <polygon points="1008.66614 250.92255 967.86986 250.92257 967.86986 253.03904 1008.64045 253.03902 1198.91576 257.63668 1198.96685 255.5205 1008.66614 250.92255" style="fill: #222221;"/>
            </g>
            <g>
              <polygon points="234.06576 250.92282 189.91858 250.92284 1.0324 255.5205 1.08378 257.63668 189.94427 253.03932 234.06576 253.0393 234.06576 250.92282" style="fill: #222221;"/>
              <rect x="413.76932" y="250.92275" width="93.94238" height="2.11648" style="fill: #222221;"/>
            </g>
          </g>
          <path d="m507.7117,91.27354v38.04166h186.5246v-38.04166h-186.5246Zm24.93084,2.11677h14.18161v33.80811h-14.18161v-33.80811Zm-1.51198,33.80811h-15.46v-33.80811h15.46v33.80811Zm17.20557-33.80811h11.6009v33.80811h-11.6009v-33.80811Zm13.11288,0h14.18131v33.80811h-14.18131v-33.80811Zm15.69329,0h14.89832v33.80811h-14.89832v-33.80811Zm16.4103,0h14.18131v33.80811h-14.18131v-33.80811Zm15.69329,0h15.41038v33.80811h-15.41038v-33.80811Zm16.92236,0h14.18131v33.80811h-14.18131v-33.80811Zm15.69329,0h11.52058v33.80811h-11.52058v-33.80811Zm13.03256,0h14.19844v33.80811h-14.19844v-33.80811Zm15.71042,0h14.24982v33.80811h-14.24982v-33.80811Zm-160.77605,0h3.72532v33.80811h-3.72532v-33.80811Zm182.29105,33.80811h-5.14841v-33.80811h5.14841v33.80811Z" style="fill: #222221;"/>
          <path d="m507.7117,262.60466v49.2374h186.5246v-49.2374h-186.5246Zm24.59153,2.11677h14.74653v45.00385h-14.74653v-45.00385Zm-1.51198,45.00385h-15.12069v-45.00385h15.12069v45.00385Zm17.77049-45.00385h11.30855v45.00385h-11.30855v-45.00385Zm12.82053,0h14.18131v45.00385h-14.18131v-45.00385Zm15.69329,0h14.96506v45.00385h-14.96506v-45.00385Zm16.47704,0h14.18131v45.00385h-14.18131v-45.00385Zm15.69329,0h15.41038v45.00385h-15.41038v-45.00385Zm16.92236,0h14.18131v45.00385h-14.18131v-45.00385Zm15.69329,0h11.52058v45.00385h-11.52058v-45.00385Zm13.03256,0h14.19844v45.00385h-14.19844v-45.00385Zm15.71042,0h14.24982v45.00385h-14.24982v-45.00385Zm-160.77605,0h3.72532v45.00385h-3.72532v-45.00385Zm182.29105,45.00385h-5.14841v-45.00385h5.14841v45.00385Z" style="fill: #222221;"/>
          <path d="m507.7117,203.59713v50.56525h186.5246v-50.56525h-186.5246Zm24.59153,2.11677h14.74653v46.33171h-14.74653v-46.33171Zm-1.51198,46.33171h-15.12069v-46.33171h15.12069v46.33171Zm17.77049-46.33171h11.30855v46.33171h-11.30855v-46.33171Zm12.82053,0h14.18131v46.33171h-14.18131v-46.33171Zm15.69329,0h14.96506v46.33171h-14.96506v-46.33171Zm16.47704,0h14.18131v46.33171h-14.18131v-46.33171Zm15.69329,0h15.41038v46.33171h-15.41038v-46.33171Zm16.92236,0h14.18131v46.33171h-14.18131v-46.33171Zm15.69329,0h11.52058v46.33171h-11.52058v-46.33171Zm13.03256,0h14.19844v46.33171h-14.19844v-46.33171Zm15.71042,0h14.24982v46.33171h-14.24982v-46.33171Zm-160.77605,0h3.72532v46.33171h-3.72532v-46.33171Zm182.29105,46.33171h-5.14841v-46.33171h5.14841v46.33171Z" style="fill: #222221;"/>
          <path d="m507.7117,148.5829v44.78193h186.5246v-44.78193h-186.5246Zm24.59153,2.11677h14.74653v40.54838h-14.74653v-40.54838Zm-1.51198,40.54838h-15.12069v-40.54838h15.12069v40.54838Zm17.77049-40.54838h11.30855v40.54838h-11.30855v-40.54838Zm12.82053,0h14.18131v40.54838h-14.18131v-40.54838Zm15.69329,0h14.96506v40.54838h-14.96506v-40.54838Zm16.47704,0h14.18131v40.54838h-14.18131v-40.54838Zm15.69329,0h15.41038v40.54838h-15.41038v-40.54838Zm16.92236,0h14.18131v40.54838h-14.18131v-40.54838Zm15.69329,0h11.52058v40.54838h-11.52058v-40.54838Zm13.03256,0h14.19844v40.54838h-14.19844v-40.54838Zm15.71042,0h14.24982v40.54838h-14.24982v-40.54838Zm-160.77605,0h3.72532v40.54838h-3.72532v-40.54838Zm182.29105,40.54838h-5.14841v-40.54838h5.14841v40.54838Z" style="fill: #222221;"/>
          <path d="m507.7117,328.02851v39.74145h186.5246v-39.74145h-186.5246Zm184.40783,30.06183h-5.149v-27.94505h5.149v27.94505Zm-176.44896,0v-27.94505h15.1198v27.94505h-15.1198Zm16.63178-27.94505h14.74742v27.94505h-14.74742v-27.94505Zm16.2594,0h11.30855v27.94505h-11.30855v-27.94505Zm12.82053,0h14.18131v27.94505h-14.18131v-27.94505Zm15.69329,0h14.96447v27.94505h-14.96447v-27.94505Zm16.47645,0h14.18131v27.94505h-14.18131v-27.94505Zm15.69329,0h15.41098v27.94505h-15.41098v-27.94505Zm16.92296,0h14.18131v27.94505h-14.18131v-27.94505Zm15.69329,0h11.52058v27.94505h-11.52058v-27.94505Zm13.03256,0h14.19785v27.94505h-14.19785v-27.94505Zm15.70983,0h14.24982v27.94505h-14.24982v-27.94505Zm-157.05014,0v27.94505h-3.72532v-27.94505h3.72532Zm-3.72532,35.50791v-5.44608h182.29105v5.44608h-182.29105Z" style="fill: #222221;"/>
          <path d="m225.33346,392.21147v78.61942h1.47333l17.54871-11.48101h112.11775l23.16015-20.82959v-18.5817h20.6408l15.61188-14.25071v-13.47641h-190.55263Zm2.11677,2.11677h15.53146v63.39095l-15.53146,10.16098v-73.55193Zm127.55857,62.90487h-109.91034v-62.90487h109.91034v62.90487Zm22.50783-19.65604l-20.39106,18.33896v-61.58779h20.39106v43.24883Zm21.2888-19.75526h-19.17203v-23.49357h19.17203v23.49357Zm14.96388-13.0677l-12.84711,11.727v-22.15287h12.84711v10.42587Z" style="fill: #222221;"/>
          <path d="m786.04953,392.21147v13.47641l15.61134,14.25071h20.64074v18.5817l23.16017,20.82959h112.11833l17.54871,11.48101h1.47329v-78.61942h-190.55259Zm2.11677,2.11677h12.84652v22.15287l-12.84652-11.727v-10.42587Zm14.96329,23.49357v-23.49357h19.17203v23.49357h-19.17203Zm21.2888,19.75526v-43.24883h20.39106v61.58779l-20.39106-18.33896Zm22.50783-43.24883h109.91089v62.90487h-109.91089v-62.90487Zm127.55913,73.55193l-15.53146-10.16098v-63.39095h15.53146v73.55193Z" style="fill: #222221;"/>
          <path d="m967.86984,327.94287h-106.86746v-.03455l-37.73321.03455h-37.21966v17.53631l14.96329,8.72113h0l.77253.45027h10.28043l10.23584,5.13927v6.59983l37.46012,20.72181h1.24066v-7.86289h106.86746v-51.30574Zm-179.70356,16.32023v-14.20346h12.84652v21.69071l-12.84652-7.48725Zm14.96329-14.20346h8.12866v22.47417h-8.12866v-22.47417Zm10.24544,22.87963v-22.87963h8.92659v27.36152l-8.92659-4.4819Zm11.04336,12.20245v-35.08296l20.39106-.01886v46.38158l-20.39106-11.27976Zm22.50783,12.45069v-47.53276h11.95941v54.14838l-11.95941-6.61561Zm118.82687-.46057h-104.75069v-47.07219h104.75069v47.07219Z" style="fill: #222221;"/>
          <path d="m415.88607,327.94287h-181.82033v51.30574h122.27408l23.29357-12.85833v-6.60042l10.23584-5.13927h10.28043l15.73641-9.1714v-17.53631Zm-60.87728,49.18897h-118.82628v-47.07219h118.82628v47.07219Zm22.50783-11.99071l-20.39106,11.25598v-46.33747h20.39106v35.08148Zm2.11677-35.08148h8.92659v22.87963l-8.92659,4.4819v-27.36152Zm19.17203,22.47417h-8.12866v-22.47417h8.12866v22.47417Zm14.96388-8.27071l-12.84711,7.48725v-21.69071h12.84711v14.20346Z" style="fill: #222221;"/>
          <path d="m967.86984,262.58753h-181.82033v37.00778l15.8625,4.88234h10.20572l10.18387,3.97493v2.25106l36.47165,12.13896h2.25807v-4.46595h106.83852v-55.78911Zm-179.70356,2.11677h12.84652v37.28183l-12.84652-3.95418v-33.32764Zm14.96329,0h8.12866v37.65657h-8.12866v-37.65657Zm10.24544,37.99204v-37.99204h8.92659v41.47609l-8.92659-3.48405Zm11.04336-37.99204h20.39106v51.25989l-20.39106-6.78671v-44.47318Zm34.49618,55.95449l-11.98835-3.99006v-51.96442h11.98835v55.95449Zm106.83852-4.39892h-104.72175v-51.55557h104.72175v51.55557Z" style="fill: #222221;"/>
          <path d="m234.06574,262.58753v55.78911h122.1643l23.40336-7.35702v-2.56704l10.18387-3.97493h10.20572l15.86309-4.88234v-37.00778h-181.82033Zm120.94305,53.67234h-118.82628v-51.55557h118.82628v51.55557Zm22.50783-6.79357l-20.39106,6.40967v-51.17167h20.39106v44.76199Zm2.11677-44.76199h8.92659v37.99204l-8.92659,3.48405v-41.47609Zm19.17203,37.65657h-8.12866v-37.65657h8.12866v37.65657Zm14.96388-4.32893l-12.84711,3.95418v-37.28183h12.84711v33.32764Z" style="fill: #222221;"/>
          <path d="m845.65268,139.42081l-23.35109,9.90111v2.60311l-10.26832,5.92112h-10.18726l-15.7965,7.03455v28.53833h181.82033v-53.99821h-122.21716Zm-44.63988,51.88144h-12.84652v-25.0469l12.84652-5.72087v30.76776Zm10.24544,0h-8.12866v-31.33933h8.12866v31.33933Zm11.04336,0h-8.92659v-31.78628l8.92659-5.14738v36.93366Zm22.50783,0h-20.39106v-40.5788l20.39106-8.6459v49.2247Zm120.94364,0h-118.82687v-49.76467h118.82687v49.76467Z" style="fill: #222221;"/>
          <path d="m400.08898,157.84614h-10.22314l-10.23244-5.05982v-3.46441l-23.35109-9.90111h-122.21657v53.99821h181.82033v-28.53833l-15.79709-7.03455Zm-45.08019,33.4561h-118.82628v-49.76467h118.82628v49.76467Zm22.50783,0h-20.39106v-49.2247l20.39106,8.6459v40.5788Zm11.04336,0h-8.92659v-36.15449l8.92659,4.41413v31.74036Zm10.24544,0h-8.12866v-31.33933h8.12866v31.33933Zm14.96388,0h-12.84711v-30.76776l12.84711,5.72087v25.0469Z" style="fill: #222221;"/>
          <path d="m845.53486,77.91673l-23.23326,16.22307v4.61453l-10.35633,8.28691h-10.21546l-15.6803,11.29482v10.97841h181.82035v-51.39774h-122.335Zm-44.52204,49.28097h-12.84652v-7.77756s12.8465-9.25379,12.8465-9.25379v17.03135Zm10.24544,0h-8.12866v-18.03968s8.12865,0,8.12865,0v18.03968Zm11.04336,0h-8.92659v-18.5894s8.92657-7.14292,8.92657-7.14292v25.73232Zm22.50783,0h-20.39106v-30.13715s-.00001-1.81718-.00001-1.81718l20.39106-14.2383v46.19263Zm120.94364,0h-118.82687v-47.1642s118.82686,0,118.82686,0v47.1642Z" style="fill: #222221;"/>
          <path d="m357.12558,129.17965h-123.05982v-51.26292h122.33444l.72538.50651v50.7564Zm-120.94305-2.11677h118.82628v-47.02937h-118.82628v47.02937Z" style="fill: #222221;"/>
          <path d="m379.63341,129.17965h-24.6246v-51.26292h1.39139l23.23322,16.22307v35.03984Zm-22.50783-2.11677h20.39106v-31.8195l-20.39106-14.2383v46.05781Z" style="fill: #222221;"/>
          <path d="m415.88609,129.17965h-17.08065v-22.1384h1.39988l15.68077,11.29482v10.84358Zm-14.96388-2.11677h12.84711v-7.64273l-12.84711-9.25379v16.89653Z" style="fill: #222221;"/>
          <path d="m400.92221,129.17965h-12.36221v-22.1384h11.64532l.71689.51637v21.62203Zm-10.24544-2.11677h8.12866v-17.90486h-8.12866v17.90486Z" style="fill: #222221;"/>
          <path d="m390.67677,129.17965h-13.16013v-32.11909l13.16013,10.53041v21.58868Zm-11.04336-2.11677h8.92659v-18.45457l-8.92659-7.14292v25.5975Z" style="fill: #222221;"/>
          <path d="m967.86984,202.35403h-122.09077l-22.58683,3.82576-10.95506,1.65738h-10.26655l-15.92112,3.06471v42.02876l15.96335,1.73494h10.27157l10.99611.6487,22.53825,2.1396h122.05105v-55.09986Zm-179.70356,48.6772v-38.38111l12.84652-2.47306v42.25039l-12.84652-1.39622Zm14.96329-41.07728h8.12866v42.59487h-8.12866v-42.59487Zm10.24544-.1481l8.92659-1.35045v44.68049l-8.92659-.52654v-42.80351Zm11.04336,43.4901v-45.1769l20.39106-3.45393v50.56688l-20.39106-1.93604Zm141.3347,2.04117h-118.82687v-50.86632h118.82687v50.86632Z" style="fill: #222221;"/>
          <path d="m415.88607,210.90188l-15.92156-3.06471h-10.25223l-10.96481-1.95904-22.59864-3.5241h-122.08309v55.09986h120.94305v.10513l1.10741-.10513h1.00936v-.09583l21.52888-2.04378,10.99611-.6487h10.27423l15.96128-1.84007v-41.92363Zm-179.70356,44.43523v-50.86632h118.82628v50.86632h-118.82628Zm120.94305-50.68854l20.39106,3.18003v45.46734l-20.39106,1.93604v-50.58341Zm22.50783,3.53809l8.92659,1.59496v42.82772l-8.92659.52654v-44.94922Zm11.04336,44.36215v-42.59487h8.12866v42.59487h-8.12866Zm23.09254-1.61032l-12.84711,1.48127v-42.24272l12.84711,2.47306v38.28839Z" style="fill: #222221;"/>
          <g>
            <polygon points="236.18253 120.06599 190.08779 120.06599 1.34011 67.91611 .77607 69.9564 189.66255 122.14451 189.80075 122.18276 236.18253 122.18276 236.18253 120.06599" style="fill: #222221;"/>
            <rect x="413.76932" y="120.06599" width="93.94239" height="2.11677" style="fill: #222221;"/>
          </g>
          <g>
            <polygon points="119.93084 308.45346 113.93548 308.45346 1.21177 323.25683 13.49011 323.25683 119.93084 308.45346" style="fill: #fff;"/>
            <path d="m13.54228,324.01291H1.21167l-.09834-1.50548,112.77275-14.81002h6.04467l.10424,1.50489-106.49272,14.81061Z" style="fill: #222221;"/>
          </g>
          <g>
            <rect x="192.86913" y="312.8159" width="3.88476" height="28.13049" transform="translate(389.62301 653.76229) rotate(180)" style="fill: #ffc78c;"/>
            <path d="m197.5098,341.70248h-5.39676v-29.64249h5.39676v29.64249Zm-3.88478-1.51198h2.3728v-26.61853h-2.3728v26.61853Z" style="fill: #222221;"/>
          </g>
          <g>
            <rect x="168.84782" y="312.81589" width="3.88479" height="33.71007" transform="translate(341.58042 659.34186) rotate(180)" style="fill: #ffc78c;"/>
            <path d="m173.48851,347.28204h-5.39676v-35.22205h5.39676v35.22205Zm-3.88478-1.51198h2.3728v-32.19809h-2.3728v32.19809Z" style="fill: #222221;"/>
          </g>
          <g>
            <rect x="143.1362" y="312.81591" width="5.39054" height="39.35918" transform="translate(291.66294 664.99099) rotate(180)" style="fill: #ffc78c;"/>
            <path d="m149.28265,352.931h-6.90254v-40.87101h6.90254v40.87101Zm-5.39056-1.51198h3.87858v-37.84705h-3.87858v37.84705Z" style="fill: #222221;"/>
          </g>
          <path d="m215.02928,313.57197h-95.85452v-5.87457h95.85452v5.87457Zm-94.34254-1.51198h92.83056v-2.85061h-92.83056v2.85061Z" style="fill: #222221;"/>
          <g>
            <rect x="1053.57145" y="308.63078" width="5.39" height="44.14909" style="fill: #3a4bcc;"/>
            <path d="m1059.71733,353.53579h-6.90195v-45.66091h6.90195v45.66091Zm-5.38997-1.51198h3.87799v-42.63695h-3.87799v42.63695Z" style="fill: #222221;"/>
          </g>
          <g>
            <rect x="192.86913" y="213.52134" width="3.88476" height="38.22534" transform="translate(389.62301 465.26801) rotate(180)" style="fill: #bea5e6;"/>
            <path d="m197.5098,252.50274h-5.39676v-39.73747h5.39676v39.73747Zm-3.88478-1.51198h2.3728v-36.71351h-2.3728v36.71351Z" style="fill: #222221;"/>
          </g>
          <g>
            <rect x="168.70638" y="210.99052" width="3.88476" height="41.52777" transform="translate(341.29753 463.50882) rotate(180)" style="fill: #bea5e6;"/>
            <path d="m173.34706,253.27438h-5.39676v-43.0399h5.39676v43.0399Zm-3.88478-1.51198h2.3728v-40.01594h-2.3728v40.01594Z" style="fill: #222221;"/>
          </g>
          <g>
            <rect x="168.70638" y="164.17527" width="3.88476" height="28.47839" transform="translate(341.29753 356.82892) rotate(180)" style="fill: #bea5e6;"/>
            <path d="m173.34706,193.40957h-5.39676v-29.99036h5.39676v29.99036Zm-3.88478-1.51198h2.3728v-26.9664h-2.3728v26.9664Z" style="fill: #222221;"/>
          </g>
          <g>
            <rect x="168.70638" y="116.14918" width="3.88476" height="12.10692" transform="translate(341.29753 244.40527) rotate(180)" style="fill: #aac8ff;"/>
            <path d="m173.34706,129.01206h-5.39676v-13.61889h5.39676v13.61889Zm-3.88478-1.51198h2.3728v-10.59493h-2.3728v10.59493Z" style="fill: #222221;"/>
          </g>
          <g>
            <rect x="1003.07488" y="301.53185" width="3.88449" height="38.94561" style="fill: #3a4bcc;"/>
            <path d="m1007.71526,341.23353h-5.39647v-40.45758h5.39647v40.45758Zm-3.88449-1.51198h2.37251v-37.43362h-2.37251v37.43362Z" style="fill: #222221;"/>
          </g>
          <g>
            <rect x="1148.44466" y="393.26976" width="7.16183" height="61.43662" style="fill: #aac8ff;"/>
            <path d="m1156.36239,455.46245h-8.6738v-62.94857h8.6738v62.94857Zm-7.16182-1.51198h5.64984v-59.92461h-5.64984v59.92461Z" style="fill: #222221;"/>
          </g>
          <g>
            <rect x="1148.44466" y="322.79453" width="7.16183" height="53.86532" style="fill: #3a4bcc;"/>
            <path d="m1156.36239,377.41592h-8.6738v-55.37745h8.6738v55.37745Zm-7.16182-1.51198h5.64984v-52.35349h-5.64984v52.35349Z" style="fill: #222221;"/>
          </g>
          <g>
            <rect x="1148.44466" y="202.06041" width="7.16183" height="53.18819" style="fill: #bea5e6;"/>
            <path d="m1156.36239,256.00451h-8.6738v-54.70016h8.6738v54.70016Zm-7.16182-1.51198h5.64984v-51.6762h-5.64984v51.6762Z" style="fill: #222221;"/>
          </g>
          <g>
            <rect x="1148.44466" y="142.45238" width="7.16183" height="50.21071" style="fill: #bea5e6;"/>
            <path d="m1156.36239,193.41902h-8.6738v-51.72257h8.6738v51.72257Zm-7.16182-1.51198h5.64984v-48.69861h-5.64984v48.69861Z" style="fill: #222221;"/>
          </g>
          <g>
            <rect x="1148.44466" y="80.97826" width="7.16183" height="47.29634" style="fill: #aac8ff;"/>
            <path d="m1156.36239,129.03052h-8.6738v-48.80831h8.6738v48.80831Zm-7.16182-1.51198h5.64984v-45.78435h-5.64984v45.78435Z" style="fill: #222221;"/>
          </g>
          <g>
            <rect x="1113.14821" y="393.26976" width="6.61845" height="47.51546" style="fill: #aac8ff;"/>
            <path d="m1120.52256,441.5413h-8.13044v-49.02743h8.13044v49.02743Zm-6.61846-1.51198h5.10648v-46.00347h-5.10648v46.00347Z" style="fill: #222221;"/>
          </g>
          <g>
            <rect x="1113.14821" y="317.70798" width="6.61845" height="49.81856" style="fill: #3a4bcc;"/>
            <path d="m1120.52256,368.28262h-8.13044v-51.33054h8.13044v51.33054Zm-6.61846-1.51198h5.10648v-48.30658h-5.10648v48.30658Z" style="fill: #222221;"/>
          </g>
          <g>
            <rect x="1113.14821" y="204.70519" width="6.61845" height="49.63622" style="fill: #bea5e6;"/>
            <path d="m1120.52256,255.09733h-8.13044v-51.14819h8.13044v51.14819Zm-6.61846-1.51198h5.10648v-48.12423h-5.10648v48.12423Z" style="fill: #222221;"/>
          </g>
          <g>
            <rect x="1113.14821" y="148.73003" width="6.61845" height="43.93306" style="fill: #bea5e6;"/>
            <path d="m1120.52256,193.41902h-8.13044v-45.44504h8.13044v45.44504Zm-6.61846-1.51198h5.10648v-42.42108h-5.10648v42.42108Z" style="fill: #222221;"/>
          </g>
          <g>
            <rect x="1113.14821" y="91.51516" width="6.61845" height="36.75944" style="fill: #aac8ff;"/>
            <path d="m1120.52256,129.03052h-8.13044v-38.27141h8.13044v38.27141Zm-6.61846-1.51198h5.10648v-35.24745h-5.10648v35.24745Z" style="fill: #222221;"/>
          </g>
          <g>
            <rect x="1079.89823" y="393.26976" width="5.99476" height="34.39002" style="fill: #aac8ff;"/>
            <path d="m1086.64889,428.41572h-7.50674v-35.90185h7.50674v35.90185Zm-5.99476-1.51198h4.48278v-32.87789h-4.48278v32.87789Z" style="fill: #222221;"/>
          </g>
          <g>
            <rect x="1079.89823" y="312.56193" width="5.99476" height="46.87138" style="fill: #3a4bcc;"/>
            <path d="m1086.64889,360.18939h-7.50674v-48.38336h7.50674v48.38336Zm-5.99476-1.51198h4.48278v-45.3594h-4.48278v45.3594Z" style="fill: #222221;"/>
          </g>
          <g>
            <rect x="1079.89823" y="207.46041" width="5.99476" height="46.21461" style="fill: #bea5e6;"/>
            <path d="m1086.64889,254.43111h-7.50674v-47.72674h7.50674v47.72674Zm-5.99476-1.51198h4.48278v-44.70278h-4.48278v44.70278Z" style="fill: #222221;"/>
          </g>
          <g>
            <rect x="1079.89823" y="154.5621" width="5.99476" height="37.7986" style="fill: #bea5e6;"/>
            <path d="m1086.64889,193.11662h-7.50674v-39.31045h7.50674v39.31045Zm-5.99476-1.51198h4.48278v-36.28649h-4.48278v36.28649Z" style="fill: #222221;"/>
          </g>
          <g>
            <rect x="1027.2069" y="164.29855" width="3.84551" height="28.06214" style="fill: #bea5e6;"/>
            <path d="m1031.80831,193.11662h-5.35749v-29.57412h5.35749v29.57412Zm-3.84551-1.51198h2.33353v-26.55016h-2.33353v26.55016Z" style="fill: #222221;"/>
          </g>
          <g>
            <rect x="1027.2069" y="115.97611" width="3.84551" height="12.27998" style="fill: #aac8ff;"/>
            <path d="m1031.80831,129.01206h-5.35749v-13.79195h5.35749v13.79195Zm-3.84551-1.51198h2.33353v-10.76799h-2.33353v10.76799Z" style="fill: #222221;"/>
          </g>
          <g>
            <rect x="1027.2069" y="211.93258" width="3.84551" height="40.1816" style="fill: #bea5e6;"/>
            <path d="m1031.80831,252.87011h-5.35749v-41.69359h5.35749v41.69359Zm-3.84551-1.51198h2.33353v-38.66963h-2.33353v38.66963Z" style="fill: #222221;"/>
          </g>
          <g>
            <rect x="1027.2069" y="304.3689" width="3.84551" height="41.42883" style="fill: #3a4bcc;"/>
            <path d="m1031.80831,346.55381h-5.35749v-42.94083h5.35749v42.94083Zm-3.84551-1.51198h2.33353v-39.91687h-2.33353v39.91687Z" style="fill: #222221;"/>
          </g>
          <g>
            <rect x="1079.89823" y="101.05731" width="5.99476" height="27.21729" style="fill: #aac8ff;"/>
            <path d="m1086.64889,129.03052h-7.50674v-28.72925h7.50674v28.72925Zm-5.99476-1.51198h4.48278v-25.70529h-4.48278v25.70529Z" style="fill: #222221;"/>
          </g>
          <g>
            <rect x="1186.38593" y="323.25683" width="12.69649" height="5.19922" style="fill: #3a4bcc;"/>
            <path d="m1199.83832,329.21211h-14.20848v-6.71118h14.20848v6.71118Zm-12.6965-1.51198h11.18452v-3.68722h-11.18452v3.68722Z" style="fill: #222221;"/>
          </g>
          <g>
            <polygon points="1186.38593 323.25683 1003.09554 297.84553 1003.09554 301.53185 1186.38593 328.45605 1186.38593 323.25683" style="fill: #3a4bcc;"/>
            <path d="m1187.14182,329.33141l-.86584-.12728-183.93651-27.01926v-5.20718l.85994.11901,183.94242,25.50167v6.73304Zm-183.29038-28.45239l181.7784,26.7018v-3.66537l-181.7784-25.20193v2.1655Z" style="fill: #222221;"/>
          </g>
          <g>
            <polygon points="1003.09554 297.84553 1007.2275 297.84553 1199.08242 323.25683 1186.38593 323.25683 1003.09554 297.84553" style="fill: #fff;"/>
            <path d="m1199.08233,324.01291l-12.80045-.00709-183.29038-25.41131.10395-1.50489,4.23118.0065,191.85492,25.41131-.09922,1.50548Z" style="fill: #222221;"/>
          </g>
          <g>
            <rect x="1113.14821" y="263.40486" width="6.61845" height="49.74593" style="fill: #3a4bcc;"/>
            <path d="m1120.52256,313.90685h-8.13044v-51.2579h8.13044v51.2579Zm-6.61846-1.51198h5.10648v-48.23394h-5.10648v48.23394Z" style="fill: #222221;"/>
          </g>
          <g>
            <rect x="1148.44466" y="263.40486" width="7.16183" height="54.51087" style="fill: #3a4bcc;"/>
            <path d="m1156.36239,318.67166h-8.6738v-56.0227h8.6738v56.0227Zm-7.16182-1.51198h5.64984v-52.99874h-5.64984v52.99874Z" style="fill: #222221;"/>
          </g>
          <g>
            <rect x="1079.89823" y="263.40486" width="5.99476" height="45.0486" style="fill: #3a4bcc;"/>
            <path d="m1086.64889,309.20938h-7.50674v-46.56042h7.50674v46.56042Zm-5.99476-1.51198h4.48278v-43.53646h-4.48278v43.53646Z" style="fill: #222221;"/>
          </g>
          <g>
            <rect x="1053.57145" y="209.57719" width="5.39" height="43.49304" style="fill: #bea5e6;"/>
            <path d="m1059.71733,253.82632h-6.90195v-45.00518h6.90195v45.00518Zm-5.38997-1.51198h3.87799v-41.98122h-3.87799v41.98122Z" style="fill: #222221;"/>
          </g>
          <g>
            <rect x="1053.57145" y="159.40043" width="5.39" height="32.96026" style="fill: #bea5e6;"/>
            <path d="m1059.71733,193.11662h-6.90195v-34.47211h6.90195v34.47211Zm-5.38997-1.51198h3.87799v-31.44815h-3.87799v31.44815Z" style="fill: #222221;"/>
          </g>
          <g>
            <rect x="1053.57145" y="108.31549" width="5.39" height="19.95911" style="fill: #aac8ff;"/>
            <path d="m1059.71733,129.03052h-6.90195v-21.471h6.90195v21.471Zm-5.38997-1.51198h3.87799v-18.44704h-3.87799v18.44704Z" style="fill: #222221;"/>
          </g>
          <g>
            <rect x="1053.57145" y="263.40486" width="5.39" height="40.81506" style="fill: #3a4bcc;"/>
            <path d="m1059.71733,304.97584h-6.90195v-42.32688h6.90195v42.32688Zm-5.38997-1.51198h3.87799v-39.30292h-3.87799v39.30292Z" style="fill: #222221;"/>
          </g>
          <g>
            <rect x="1003.07488" y="213.53328" width="3.88449" height="38.44772" style="fill: #bea5e6;"/>
            <path d="m1007.71526,252.73692h-5.39647v-39.95968h5.39647v39.95968Zm-3.88449-1.51198h2.37251v-36.93572h-2.37251v36.93572Z" style="fill: #222221;"/>
          </g>
          <g>
            <rect x="1003.07488" y="168.49799" width="3.88449" height="23.8627" style="fill: #bea5e6;"/>
            <path d="m1007.71526,193.11662h-5.39647v-25.37469h5.39647v25.37469Zm-3.88449-1.51198h2.37251v-22.35073h-2.37251v22.35073Z" style="fill: #222221;"/>
          </g>
          <g>
            <rect x="1003.07488" y="121.16937" width="3.88449" height="7.08673" style="fill: #aac8ff;"/>
            <path d="m1007.71526,129.01206h-5.39647v-8.59865h5.39647v8.59865Zm-3.88449-1.51198h2.37251v-5.57469h-2.37251v5.57469Z" style="fill: #222221;"/>
          </g>
          <g>
            <rect x="192.86926" y="121.16937" width="3.88449" height="7.08673" style="fill: #aac8ff;"/>
            <path d="m197.5098,129.01206h-5.39647v-8.59865h5.39647v8.59865Zm-3.88449-1.51198h2.37251v-5.57469h-2.37251v5.57469Z" style="fill: #222221;"/>
          </g>
          <g>
            <rect x="986.2659" y="297.84553" width="16.82964" height="3.68633" style="fill: #3a4bcc;"/>
            <path d="m1003.85144,302.28794h-18.34162v-5.19832h18.34162v5.19832Zm-16.82964-1.51198h15.31766v-2.17436h-15.31766v2.17436Z" style="fill: #222221;"/>
          </g>
          <g>
            <rect x="1003.07488" y="263.40486" width="3.88449" height="34.44067" style="fill: #3a4bcc;"/>
            <path d="m1007.71526,298.6016h-5.39647v-35.95264h5.39647v35.95264Zm-3.88449-1.51198h2.37251v-32.92868h-2.37251v32.92868Z" style="fill: #222221;"/>
          </g>
          <g>
            <polygon points="44.22258 323.83661 51.38411 322.79453 51.38411 376.65985 44.22258 376.65985 44.22258 323.83661" style="fill: #ffc78c;"/>
            <path d="m52.14,377.41592h-8.67351v-54.12863l8.67351-1.24882v55.37745Zm-7.16153-1.51198h5.64955v-52.35349l-5.64955,1.04209v51.31141Z" style="fill: #222221;"/>
          </g>
          <g>
            <rect x="44.22258" y="393.52671" width="7.16152" height="61.7496" transform="translate(95.60669 848.80302) rotate(180)" style="fill: #f3030e;"/>
            <path d="m52.14,456.03239h-8.67351v-63.2616h8.67351v63.2616Zm-7.16153-1.51198h5.64955v-60.23764h-5.64955v60.23764Z" style="fill: #222221;"/>
          </g>
          <g>
            <rect x="44.22258" y="202.06041" width="7.16152" height="53.18819" transform="translate(95.60669 457.30901) rotate(180)" style="fill: #bea5e6;"/>
            <path d="m52.14,256.00451h-8.67351v-54.70016h8.67351v54.70016Zm-7.16153-1.51198h5.64955v-51.6762h-5.64955v51.6762Z" style="fill: #222221;"/>
          </g>
          <g>
            <rect x="44.22258" y="142.45238" width="7.16152" height="50.20133" transform="translate(95.60669 335.10609) rotate(180)" style="fill: #bea5e6;"/>
            <path d="m52.14,193.40964h-8.67351v-51.71319h8.67351v51.71319Zm-7.16153-1.51198h5.64955v-48.68923h-5.64955v48.68923Z" style="fill: #222221;"/>
          </g>
          <g>
            <rect x="44.22258" y="80.97826" width="7.16152" height="47.29634" transform="translate(95.60669 209.25286) rotate(180)" style="fill: #aac8ff;"/>
            <path d="m52.14,129.03052h-8.67351v-48.80831h8.67351v48.80831Zm-7.16153-1.51198h5.64955v-45.78435h-5.64955v45.78435Z" style="fill: #222221;"/>
          </g>
          <g>
            <polygon points="80.06241 318.57123 86.68056 317.70798 86.68056 367.52655 80.06241 367.52655 80.06241 318.57123" style="fill: #ffc78c;"/>
            <path d="m87.43647,368.28262h-8.13014v-50.26147l8.13014-1.06907v51.33054Zm-6.61816-1.51198h5.10618v-48.30658l-5.10618.86324v47.44334Z" style="fill: #222221;"/>
          </g>
          <g>
            <rect x="80.06241" y="393.46762" width="6.61815" height="48.00228" transform="translate(166.74297 834.93753) rotate(180)" style="fill: #f3030e;"/>
            <path d="m87.43647,442.22583h-8.13014v-49.5141h8.13014v49.5141Zm-6.61816-1.51198h5.10618v-46.49014h-5.10618v46.49014Z" style="fill: #222221;"/>
          </g>
          <g>
            <rect x="80.06241" y="204.70519" width="6.61815" height="49.63622" transform="translate(166.74297 459.04661) rotate(180)" style="fill: #bea5e6;"/>
            <path d="m87.43647,255.09733h-8.13014v-51.14819h8.13014v51.14819Zm-6.61816-1.51198h5.10618v-48.12423h-5.10618v48.12423Z" style="fill: #222221;"/>
          </g>
          <g>
            <rect x="80.06241" y="148.73003" width="6.61815" height="43.92368" transform="translate(166.74297 341.38374) rotate(180)" style="fill: #bea5e6;"/>
            <path d="m87.43647,193.40964h-8.13014v-45.43566h8.13014v45.43566Zm-6.61816-1.51198h5.10618v-42.4117h-5.10618v42.4117Z" style="fill: #222221;"/>
          </g>
          <g>
            <rect x="80.06241" y="91.51516" width="6.61815" height="36.75944" transform="translate(166.74297 219.78976) rotate(180)" style="fill: #aac8ff;"/>
            <path d="m87.43647,129.03052h-8.13014v-38.27141h8.13014v38.27141Zm-6.61816-1.51198h5.10618v-35.24745h-5.10618v35.24745Z" style="fill: #222221;"/>
          </g>
          <g>
            <rect x="113.93548" y="313.31801" width="5.99536" height="45.81291" transform="translate(233.86632 672.44893) rotate(180)" style="fill: #ffc78c;"/>
            <path d="m120.68674,359.887h-7.50734v-46.82106h7.50734v46.82106Zm-5.99536-1.51198h4.48338v-45.05701h-4.48338v45.05701Z" style="fill: #222221;"/>
          </g>
          <g>
            <rect x="113.93548" y="393.39868" width="6.60016" height="35.10022" transform="translate(234.47112 821.89758) rotate(180)" style="fill: #f3030e;"/>
            <path d="m121.29153,429.25499h-8.11213v-36.61236h8.11213v36.61236Zm-6.60015-1.51198h5.08817v-33.5884h-5.08817v33.5884Z" style="fill: #222221;"/>
          </g>
          <g>
            <rect x="113.93548" y="207.46041" width="5.99536" height="46.21461" transform="translate(233.86632 461.13544) rotate(180)" style="fill: #bea5e6;"/>
            <path d="m120.68674,254.43111h-7.50734v-47.72674h7.50734v47.72674Zm-5.99536-1.51198h4.48338v-44.70278h-4.48338v44.70278Z" style="fill: #222221;"/>
          </g>
          <g>
            <rect x="113.93548" y="154.5621" width="5.99536" height="37.7986" transform="translate(233.86632 346.92279) rotate(180)" style="fill: #bea5e6;"/>
            <path d="m120.68674,193.11662h-7.50734v-39.31045h7.50734v39.31045Zm-5.99536-1.51198h4.48338v-36.28649h-4.48338v36.28649Z" style="fill: #222221;"/>
          </g>
          <g>
            <rect x="113.93548" y="101.35972" width="5.99536" height="26.91488" transform="translate(233.86632 229.63432) rotate(180)" style="fill: #aac8ff;"/>
            <path d="m120.68674,129.03052h-7.50734v-28.42685h7.50734v28.42685Zm-5.99536-1.51198h4.48338v-25.40289h-4.48338v25.40289Z" style="fill: #222221;"/>
          </g>
          <path d="m14.246,329.21211H.45568v-6.71118h13.79032v6.71118Zm-12.27834-1.51198h10.76636v-3.68722H1.96766v3.68722Z" style="fill: #222221;"/>
          <path d="m12.73402,329.21211v-6.61344l107.95272-15.01379v5.88402l-.64614.09509-106.49465,15.64811h-.81194Zm1.51198-5.29695v3.66567l104.92876-15.41777v-2.84116l-104.92876,14.59327Z" style="fill: #222221;"/>
          <g>
            <rect x="80.06241" y="263.40486" width="6.61815" height="49.74593" transform="translate(166.74297 576.55564) rotate(180)" style="fill: #ffc78c;"/>
            <path d="m87.43647,313.64222l-8.13014.26463v-51.2579h8.13014v50.99327Zm-6.61816-1.24735h5.10618v-48.23394h-5.10618v48.23394Z" style="fill: #222221;"/>
          </g>
          <g>
            <rect x="44.22258" y="263.40486" width="7.16152" height="54.51087" transform="translate(95.60669 581.32059) rotate(180)" style="fill: #ffc78c;"/>
            <path d="m52.14,318.67166h-8.67351v-56.0227h8.67351v56.0227Zm-7.16153-1.51198h5.64955v-52.99874h-5.64955v52.99874Z" style="fill: #222221;"/>
          </g>
          <g>
            <rect x="113.93548" y="263.40486" width="5.99536" height="45.0486" transform="translate(233.86632 571.85831) rotate(180)" style="fill: #ffc78c;"/>
            <path d="m120.68674,309.20938h-7.50734v-46.56042h7.50734v46.56042Zm-5.99536-1.51198h4.48338v-43.53646h-4.48338v43.53646Z" style="fill: #222221;"/>
          </g>
          <g>
            <rect x="143.1362" y="209.57719" width="5.39054" height="43.49304" transform="translate(291.66294 462.64742) rotate(180)" style="fill: #bea5e6;"/>
            <path d="m149.28265,253.82632h-6.90254v-45.00518h6.90254v45.00518Zm-5.39056-1.51198h3.87858v-41.98122h-3.87858v41.98122Z" style="fill: #222221;"/>
          </g>
          <g>
            <rect x="143.1362" y="159.40043" width="5.39054" height="32.96026" transform="translate(291.66294 351.76112) rotate(180)" style="fill: #bea5e6;"/>
            <path d="m149.28265,193.11662h-6.90254v-34.47211h6.90254v34.47211Zm-5.39056-1.51198h3.87858v-31.44815h-3.87858v31.44815Z" style="fill: #222221;"/>
          </g>
          <g>
            <rect x="143.1362" y="109.52515" width="5.99533" height="18.74945" transform="translate(292.26773 237.79975) rotate(180)" style="fill: #aac8ff;"/>
            <path d="m149.88745,129.03052h-7.50734v-20.26142h7.50734v20.26142Zm-5.99536-1.51198h4.48338v-17.23746h-4.48338v17.23746Z" style="fill: #222221;"/>
          </g>
          <g>
            <rect x="143.1362" y="263.40486" width="5.39054" height="40.81506" transform="translate(291.66294 567.62477) rotate(180)" style="fill: #ffc78c;"/>
            <path d="m149.28265,304.46591l-6.90254.50992v-42.32688h6.90254v41.81695Zm-5.39056-1.00206h3.87858v-39.30292h-3.87858v39.30292Z" style="fill: #222221;"/>
          </g>
          <g>
            <rect x="192.86913" y="168.27769" width="3.88476" height="24.083" transform="translate(389.62301 360.63838) rotate(180)" style="fill: #bea5e6;"/>
            <path d="m197.5098,193.11662h-5.39676v-25.59499h5.39676v25.59499Zm-3.88478-1.51198h2.3728v-22.57103h-2.3728v22.57103Z" style="fill: #222221;"/>
          </g>
          <g>
            <rect x="192.86913" y="263.40486" width="3.88476" height="34.44067" transform="translate(389.62301 561.25038) rotate(180)" style="fill: #ffc78c;"/>
            <path d="m197.5098,298.6016h-5.39676v-35.95264h5.39676v35.95264Zm-3.88478-1.51198h2.3728v-32.92868h-2.3728v32.92868Z" style="fill: #222221;"/>
          </g>
          <g>
            <rect x="168.70638" y="263.40486" width="3.88476" height="37.61404" transform="translate(341.29753 564.42376) rotate(180)" style="fill: #ffc78c;"/>
            <path d="m173.34706,301.23192l-5.39676.54306v-39.12603h5.39676v38.58296Zm-3.88478-.96892h2.3728v-36.10207h-2.3728v36.10207Z" style="fill: #222221;"/>
          </g>
          <g>
            <rect x="1027.2069" y="264.08171" width="3.84551" height="36.95198" style="fill: #3a4bcc;"/>
            <path d="m1031.80831,301.78975h-5.35749v-38.46395h5.35749v38.46395Zm-3.84551-1.51198h2.33353v-35.43999h-2.33353v35.43999Z" style="fill: #222221;"/>
          </g>
          <path d="m215.02839,309.20938h-101.093l-.1007-1.50519,78.98383-10.61457h22.22227l-.0124,12.11976Zm-89.79154-1.51198h88.28133l.00886-9.0958h-20.60752l-67.68267,9.0958Z" style="fill: #222221;"/>
          <path d="m1199.99985,394.32825H.00001v-9.33352h1199.99984v9.33352ZM2.11679,392.21148h1195.76629v-5.09998H2.11679v5.09998Z" style="fill: #222221;"/>
          <path d="m987.3245,330.05964H213.39799v-9.33382h773.9265v9.33382Zm-771.80973-2.11677h769.69296v-5.10028H215.51476v5.10028Z" style="fill: #222221;"/>
          <path d="m1199.99985,264.72143H.00001v-9.33352h1199.99984v9.33352ZM2.11679,262.60466h1195.76629v-5.09998H2.11679v5.09998Z" style="fill: #222221;"/>
          <path d="m1199.99985,200.63592H.00001v-9.33367h1199.99984v9.33367ZM2.11679,198.51915h1195.76629v-5.10013H2.11679v5.10013Z" style="fill: #222221;"/>
          <path d="m1199.99985,136.54967H.00001v-9.33352h1199.99984v9.33352ZM2.11679,134.4329h1195.76629v-5.09998H2.11679v5.09998Z" style="fill: #222221;"/>
          <path d="m220.24915,470.8309h-100.53545v-78.61942h100.53545v78.61942Zm-98.41868-2.11677h96.30191v-74.38588h-96.30191v74.38588Z" style="fill: #222221;"/>
          <path d="m218.86237,398.5364v-1.51198h-98.01883v1.51198h20.7726v9.57213h-20.7726v1.51198h20.7726v40.6575h-20.7726v1.51198h20.7726v17.98252h1.51198v-39.35873h17.3228v39.35873h1.51198v-39.35873h35.86021v39.35873h1.51198v-17.98252h19.52728v-1.51198h-19.52728v-40.6575h19.52728v-1.51198h-19.52728v-9.57213h19.52728Zm-39.45648,0v9.57213h-17.44299v-9.57213h17.44299Zm-36.27778,0h17.3228v9.57213h-17.3228v-9.57213Zm0,30.3654v-19.28129h17.3228v19.28129h-17.3228Zm18.83478-19.28129h17.44299v19.28129h-17.44299v-19.28129Zm35.86021,19.28129h-16.90524v-19.28129h16.90524v19.28129Zm0-20.79327h-16.90524v-9.57213h16.90524v9.57213Z" style="fill: #222221;"/>
          <path d="m180.99819,431.23444h-18.31179v39.29406h34.37658v-39.29406h-16.06479Zm-1.51198,1.51198v35.85962h-1.1898v-35.85962h1.1898Zm-15.28783,0h12.58605v36.2701h-12.58605v-36.2701Zm31.35262,36.2701h-14.55281v-36.2701h14.55281v36.2701Z" style="fill: #222221;"/>
          <path d="m1080.72086,470.8309h-100.53545v-78.61942h100.53545v78.61942Zm-98.41868-2.11677h96.30191v-74.38588h-96.30191v74.38588Z" style="fill: #222221;"/>
          <path d="m1079.59101,398.53639v-1.51198h-98.01884v1.51198h19.52758v9.57215h-19.52758v1.51198h19.52758v40.65749h-19.52758v1.51199h19.52758v17.98251h1.51196v-39.35873h35.85992v39.35873h1.51199v-39.35873h17.32279v39.35873h1.51199v-17.98251h20.7726v-1.51199h-20.7726v-40.65749h20.7726v-1.51198h-20.7726v-9.57215h20.7726Zm-41.11938,0v9.57215h-17.44327v-9.57215h17.44327Zm-35.85992,0h16.90465v9.57215h-16.90465v-9.57215Zm0,11.08412h16.90465v19.28128h-16.90465v-19.28128Zm18.41664,19.28128v-19.28128h17.44327v19.28128h-17.44327Zm36.27806,0h-17.32279v-19.28128h17.32279v19.28128Zm0-20.79326h-17.32279v-9.57215h17.32279v9.57215Z" style="fill: #222221;"/>
          <path d="m1023.6501,431.23444h-20.27885v39.29406h34.3769v-39.29406h-14.09805Zm-1.51196,1.51198v35.85962h-1.19011v-35.85962h1.19011Zm-17.25489,0h14.55282v36.27011h-14.55282v-36.27011Zm31.35294,36.27011h-12.58609v-36.27011h12.58609v36.27011Z" style="fill: #222221;"/>
          <path d="m1129.32569,60.66067V16.55456h3.40638V7.22118h-1.78632V0H69.95861v7.22118h-2.69115v9.33338h2.19208v44.10611H0v417.38698h1199.99984V60.66067h-70.67414ZM121.53869,7.22118V2.11677h11.97565v5.10441h-11.97565Zm14.09242-5.10441h89.20328v5.10441h-89.20328V2.11677Zm91.32005,0h11.68418v5.10441h-11.68418V2.11677Zm13.80095,0h89.44248v5.10441h-89.44248V2.11677Zm91.55925,0h11.9724v5.10441h-11.9724V2.11677Zm14.08917,0h88.92628v5.10441h-88.92628V2.11677Zm91.04305,0h11.95291v5.10441h-11.95291V2.11677Zm14.06968,0h89.16903v5.10441h-89.16903V2.11677Zm91.2858,0h11.83124v5.10441h-11.83124V2.11677Zm13.94802,0h89.12591v5.10441h-89.12591V2.11677Zm91.24268,0h11.76923v5.10441h-11.76923V2.11677Zm13.886,0h88.99538v5.10441h-88.99538V2.11677Zm91.11216,0h11.67709v5.10441h-11.67709V2.11677Zm13.79387,0h89.0261v5.10441h-89.0261V2.11677Zm91.14287,0h11.8968v5.10441h-11.8968V2.11677Zm14.01357,0h88.94341v5.10441h-88.94341V2.11677Zm91.06018,0h11.69127v5.10441h-11.69127V2.11677Zm13.80804,0h88.73138v5.10441h-88.73138V2.11677Zm90.84815,0h11.69068v5.10441h-11.69068V2.11677Zm13.80745,0h47.36691v5.10441h-47.36691V2.11677ZM72.07538,2.11677h47.34653v5.10441h-47.34653V2.11677Zm-2.69115,12.32101v-5.09983h1061.23107v5.09983H69.38424Zm48.80093,9.20772h-46.60885v-7.09095h46.60885v7.09095Zm-46.60885,2.11677h11.87436v34.89839h-11.87436V25.76228Zm13.99113,0h15.3153v34.89839h-15.3153V25.76228Zm17.43207,0h15.18565v34.89839h-15.18565V25.76228Zm17.30243-9.20772h5.41035v44.10611h-5.41035V16.55456Zm103.37544,7.09095h-95.84832v-7.09095h95.84832v7.09095Zm-95.84832,2.11677h5.7473v34.89839h-5.7473V25.76228Zm7.86407,0h16.0515v34.89839h-16.0515V25.76228Zm18.16827,0h16.21953v34.89839h-16.21953V25.76228Zm18.3363,0h16.59191v34.89839h-16.59191V25.76228Zm18.70869,0h15.49691v34.89839h-15.49691V25.76228Zm17.61368,0h15.15731v34.89839h-15.15731V25.76228Zm17.27408-9.20772h6.4838v44.10611h-6.4838V16.55456Zm103.3781,7.09095h-94.77753v-7.09095h94.77753v7.09095Zm-94.77753,2.11677h4.62365v34.89839h-4.62365V25.76228Zm6.74042,0h16.0515v34.89839h-16.0515V25.76228Zm18.16827,0h16.21953v34.89839h-16.21953V25.76228Zm18.3363,0h16.59162v34.89839h-16.59162V25.76228Zm18.70839,0h15.49721v34.89839h-15.49721V25.76228Zm17.61398,0h15.21017v34.89839h-15.21017V25.76228Zm17.32694-9.20772h6.4838v44.10611h-6.4838V16.55456Zm104.00356,7.09095h-95.40299v-7.09095h95.40299v7.09095Zm-95.40299,2.11677h4.45148v34.89839h-4.45148V25.76228Zm6.56825,0h16.0512v34.89839h-16.0512V25.76228Zm18.16798,0h16.21953v34.89839h-16.21953V25.76228Zm18.3363,0h16.59162v34.89839h-16.59162V25.76228Zm18.70839,0h15.49721v34.89839h-15.49721V25.76228Zm17.61398,0h16.00809v34.89839h-16.00809V25.76228Zm18.12486-9.20772h8.19836v44.10611h-8.19836V16.55456Zm101.34696,7.09095h-91.03183v-7.09095h91.03183v7.09095Zm-91.03183,2.11677h4.53476v34.89839h-4.53476V25.76228Zm6.65153,0h13.94624v34.89839h-13.94624V25.76228Zm16.06302,0h15.78129v34.89839h-15.78129V25.76228Zm17.89806,0h16.4735v34.89839h-16.4735V25.76228Zm18.59027,0h16.05888v34.89839h-16.05888V25.76228Zm18.17565,0h13.6533v34.89839h-13.6533V25.76228Zm15.77007-9.20772h12.65634v44.10611h-12.65634V16.55456Zm104.69045,7.09095h-89.91734v-7.09095h89.91734v7.09095Zm-89.91734,2.11677h17.23539v34.89839h-17.23539V25.76228Zm19.35216,0h16.07955v34.89839h-16.07955V25.76228Zm18.19633,0h16.07601v34.89839h-16.07601V25.76228Zm18.19278,0h16.16224v34.89839h-16.16224V25.76228Zm18.27901,0h15.89705v34.89839h-15.89705V25.76228Zm18.01383-9.20772h12.65575v44.10611h-12.65575V16.55456Zm107.52659,7.09095h-92.75407v-7.09095h92.75407v7.09095Zm-92.75407,2.11677h14.9816v34.89839h-14.9816V25.76228Zm17.09837,0h16.24434v34.89839h-16.24434V25.76228Zm18.36111,0h16.18587v34.89839h-16.18587V25.76228Zm18.30264,0h16.01931v34.89839h-16.01931V25.76228Zm18.13608,0h20.85588v34.89839h-20.85588V25.76228Zm22.97265-9.20772h8.54151v44.10611h-8.54151V16.55456Zm103.64387,7.09095h-92.98559v-7.09095h92.98559v7.09095Zm-92.98559,2.11677h15.00109v34.89839h-15.00109V25.76228Zm17.11786,0h16.05061v34.89839h-16.05061V25.76228Zm18.16739,0h15.87402v34.89839h-15.87402V25.76228Zm17.99079,0h16.00395v34.89839h-16.00395V25.76228Zm18.12073,0h15.92186v34.89839h-15.92186V25.76228Zm18.03863,0h3.5502v34.89839h-3.5502V25.76228Zm5.66697-9.20772h8.13575v44.10611h-8.13575V16.55456Zm104.76841,7.09095h-94.51588v-7.09095h94.51588v7.09095Zm-94.51588,2.11677h14.2008v34.89839h-14.2008V25.76228Zm16.31757,0h16.20299v34.89839h-16.20299V25.76228Zm18.31977,0h16.10731v34.89839h-16.10731V25.76228Zm18.22409,0h16.23016v34.89839h-16.23016V25.76228Zm18.34693,0h16.0831v34.89839h-16.0831V25.76228Zm18.19987,0h5.10766v34.89839h-5.10766V25.76228Zm7.22443-9.20772h5.64925v44.10611h-5.64925V16.55456Zm104.17425,7.09095h-96.40822v-7.09095h96.40822v7.09095Zm-96.40822,2.11677h15.3525v34.89839h-15.3525V25.76228Zm17.46928,0h14.89005v34.89839h-14.89005V25.76228Zm17.00682,0h16.3536v34.89839h-16.3536V25.76228Zm18.47037,0h16.11086v34.89839h-16.11086V25.76228Zm18.22763,0h16.49062v34.89839h-16.49062V25.76228Zm18.6074,0h6.62673v34.89839h-6.62673V25.76228Zm8.7435-9.20772h4.77691v44.10611h-4.77691V16.55456Zm50.94841,7.09095h-44.05473v-7.09095h44.05473v7.09095Zm-44.05473,2.11677h14.63786v34.89839h-14.63786V25.76228Zm16.75463,0h15.68502v34.89839h-15.68502V25.76228Zm17.80179,0h9.49831v34.89839h-9.49831V25.76228Zm80.17245,450.1686H2.11677v-5.09998h1195.76629v5.09998Zm0-7.21675H2.11677V69.99464h1195.76629v398.71949Zm0-400.83626H2.11677v-5.10042h1195.76629v5.10042Z" style="fill: #222221;"/>
        </g>
      </g>
    </g>
  </g>
</svg>