<?xml version="1.0" encoding="UTF-8" standalone="no"?>
<!-- Created with Inkscape (http://www.inkscape.org/) -->

<svg
   version="1.1"
   id="svg2918"
   width="322.53732"
   height="333.33331"
   viewBox="0 0 322.53731 333.33332"
   xmlns="http://www.w3.org/2000/svg"
   xmlns:svg="http://www.w3.org/2000/svg">
  <defs
     id="defs2922" />
  <g
     id="g2926"
     transform="matrix(1.3333333,0,0,-1.3333333,-662.44612,1156.1532)">
    <g
       id="g2944"
       transform="translate(644.7006,867.1149)">
      <path
         d="M 0,0 -6.302,-98.476 -53.829,0 l 21.287,-104.823 -69.784,80.065 48.741,-97.855 -82.301,53.242 70.625,-78.947 -82.605,23.318 82.605,-51.849 -70.625,-3.782 82.301,-21.921 -48.741,-22.689 69.784,4.901 L -53.829,-250 -6.302,-226.689 0,-250 l 19.938,29.66 28.561,-4.901 -7.52,22.689 41.081,21.921 -29.404,3.782 41.381,51.849 -41.381,-23.318 29.404,78.947 -41.081,-53.242 7.52,97.855 -28.561,-80.065 z"
         style="fill:#1754ff;fill-opacity:1;fill-rule:nonzero;stroke:none"
         id="path2946" />
    </g>
  </g>
</svg>
