<?xml version="1.0" encoding="UTF-8" standalone="no"?>
<!-- Created with Inkscape (http://www.inkscape.org/) -->

<svg
   version="1.1"
   id="svg8207"
   width="4310.6665"
   height="1991.5146"
   viewBox="0 0 4310.6665 1991.5146"
   xmlns="http://www.w3.org/2000/svg"
>
  <defs
     id="defs8211" />
  <g
     id="g8215"
     transform="matrix(1.3333333,0,0,-1.3333333,0,4000)">
    <path
       d="m 0,1623.1341 v 1260.096 c 0,84.069 38.732,116.77 122.24197,116.77 H 1703.679 c 149.938,-47.145 382.746,-214.095 519.991,-372.894 179.769,-207.998 377.718,-278.564 668.365,-278.564 H 3203 c 16.568,0 30,-13.431 30,-30 v -130.72 c 0,-16.569 -13.432,-30 -30,-30 h -310.965 c -199.5435,3.2233 -488.596,-70.566 -668.365,-278.564 -137.245,-158.799 -257.798,-372.894 -519.991,-372.894 H 122.24197 C 38.732,1506.3641 0,1539.0651 0,1623.1341"
       style="fill:#f500b4;fill-opacity:1;fill-rule:nonzero;stroke:none"
       id="path8253"
    />
  </g>
</svg>
