<?xml version="1.0" encoding="UTF-8" standalone="no"?>
<!-- Created with Inkscape (http://www.inkscape.org/) -->

<svg
   version="1.1"
   id="svg13421"
   width="630.57605"
   height="645.25061"
   viewBox="0 0 630.57605 645.25061"
   xmlns="http://www.w3.org/2000/svg"
   xmlns:svg="http://www.w3.org/2000/svg">
  <g
     id="g13427"
     transform="matrix(1.3333333,0,0,-1.3333333,-328.40994,15677.288)">
    <g
       id="g13429">
      <g
         id="g14672">
        <g
           id="g13533"
           transform="translate(482.44947,11694.867)"
           >
          <path
             d="M 0,0 C -90.423,0 -163.275,-74.157 -163.932,-178.891 -164.581,-282.302 -91.721,-357.099 0,-357.099 c 92.37,0 164.571,74.797 164.571,178.208 C 164.571,-74.157 91.072,0 0,0"
             style="fill:rgb(0,89,255);fill-opacity:1;fill-rule:nonzero;stroke:none"
             id="path13535" />
        </g>
        <g
           id="g13537"
           transform="translate(482.44947,11757.966)"
        >
          <path
             d="m 0,0 c -134.662,0 -236.142,-106.031 -236.142,-242.64 0,-137.871 100.841,-241.298 236.142,-241.298 135.959,0 236.79,103.427 236.79,241.298 C 236.79,-106.031 134.653,0 0,0 m 0,-420.198 c -91.721,0 -164.581,74.797 -163.932,178.208 0.657,104.733 73.509,178.89 163.932,178.89 91.072,0 164.571,-74.157 164.571,-178.89 C 164.571,-345.401 92.37,-420.198 0,-420.198"
             style="fill:rgb(255,0,255);fill-opacity:1;fill-rule:nonzero;stroke:none"
             id="path13539" />
        </g>
      </g>
    </g>
  </g>
</svg>
