<?xml version="1.0" encoding="UTF-8" standalone="no"?>
<!-- Created with Inkscape (http://www.inkscape.org/) -->

<svg
   version="1.1"
   id="svg13421"
   width="630.57593"
   height="645.25073"
   viewBox="0 0 630.57593 645.25073"
   xmlns="http://www.w3.org/2000/svg"
   xmlns:svg="http://www.w3.org/2000/svg">
  <g
     id="g13427"
     transform="matrix(1.3333333,0,0,-1.3333333,-393.99573,13533.184)">
    <g
       id="g13429">
      <g
         id="g14696"
         transform="translate(-2504.6895,6655.7234)">
        <g
           id="g13629"
           transform="translate(3036.3283,3431.0649)"
           >
          <path
             d="M 0,0 C -90.423,0 -163.275,-74.157 -163.932,-178.891 -164.581,-282.302 -91.721,-357.098 0,-357.098 c 92.37,0 164.571,74.796 164.571,178.207 C 164.571,-74.157 91.072,0 0,0"
             style="fill:#ff00b9;fill-opacity:1;fill-rule:nonzero;stroke:none"
             id="path13631" />
        </g>
        <g
           id="g13633"
           transform="translate(3036.3283,3494.1645)"
           >
          <path
             d="m 0,0 c -134.662,0 -236.142,-106.031 -236.142,-242.639 0,-137.872 100.841,-241.299 236.142,-241.299 135.959,0 236.79,103.427 236.79,241.299 C 236.79,-106.031 134.653,0 0,0 m 0,-420.198 c -91.721,0 -164.581,74.797 -163.932,178.208 0.657,104.733 73.509,178.89 163.932,178.89 91.072,0 164.571,-74.157 164.571,-178.89 C 164.571,-345.401 92.37,-420.198 0,-420.198"
             style="fill:#00af84;fill-opacity:1;fill-rule:nonzero;stroke:none"
             id="path13635" />
        </g>
      </g>
    </g>
  </g>
</svg>
