<?xml version="1.0" encoding="UTF-8" standalone="no"?>
<!-- Created with Inkscape (http://www.inkscape.org/) -->

<svg
   version="1.1"
   id="svg13421"
   width="630.57593"
   height="645.25049"
   viewBox="0 0 630.57593 645.25049"
   xmlns="http://www.w3.org/2000/svg"
   xmlns:svg="http://www.w3.org/2000/svg">
  <g
     id="g13427"
     transform="matrix(1.3333333,0,0,-1.3333333,-328.41,14555.13)">
    <g
       id="g13429">
      <g
         id="g14684"
         transform="translate(-2553.4847,5923.2044)">
        <g
           id="g13597"
           transform="translate(3035.9342,4930.0439)"
           >
          <path
             d="M 0,0 C -90.423,0 -163.275,-74.157 -163.932,-178.891 -164.581,-282.302 -91.721,-357.099 0,-357.099 c 92.37,0 164.571,74.797 164.571,178.208 C 164.571,-74.157 91.072,0 0,0"
             style="fill:#0053ff;fill-opacity:1;fill-rule:nonzero;stroke:none"
             id="path13599" />
        </g>
        <g
           id="g13605"
           transform="translate(3035.9342,4993.1435)"
           >
          <path
             d="m 0,0 c -134.662,0 -236.142,-106.031 -236.142,-242.64 0,-137.871 100.841,-241.298 236.142,-241.298 135.959,0 236.79,103.427 236.79,241.298 C 236.79,-106.031 134.653,0 0,0 m 0,-420.198 c -91.721,0 -164.581,74.797 -163.932,178.208 0.657,104.733 73.509,178.89 163.932,178.89 91.072,0 164.571,-74.157 164.571,-178.89 C 164.571,-345.401 92.37,-420.198 0,-420.198"
             style="fill:#00f05d;fill-opacity:1;fill-rule:nonzero;stroke:none"
             id="path13607" />
        </g>
      </g>
    </g>
  </g>
</svg>
