<?xml version="1.0" encoding="UTF-8" standalone="no"?>
<!-- Created with Inkscape (http://www.inkscape.org/) -->

<svg
   version="1.1"
   id="svg13421"
   width="645.33203"
   height="644.40515"
   viewBox="0 0 645.33203 644.40515"
   xmlns="http://www.w3.org/2000/svg"
   xmlns:svg="http://www.w3.org/2000/svg">
  <g
     id="g13427"
     transform="matrix(1.3333333,0,0,-1.3333333,-2071.7549,14374.632)">
    <g
       id="g13429">
      <g
         id="g15434"
         transform="translate(-3017.6362,-951.96175)">
        <g
           id="g13445"
           transform="translate(4813.4694,11633.408)"
           >
          <path
             d="m 0,0 c -70.255,0 -134.67,-50.735 -134.67,-142.465 0,-87.802 63.748,-141.782 134.67,-141.782 70.887,0 135.301,53.98 135.301,141.782 C 135.301,-51.394 70.255,0 0,0"
             style="fill:#fff800;fill-opacity:1;fill-rule:nonzero;stroke:none"
             id="path13447" />
        </g>
        <g
           id="g13449"
           transform="translate(4813.4694,11732.933)"
           >
          <path
             d="m 0,0 c -135.319,-0.649 -242.017,-106.031 -242.017,-241.99 0,-139.17 113.204,-241.948 242.017,-241.308 128.778,0.649 241.982,102.138 241.982,241.308 C 241.982,-106.031 135.301,0.658 0,0 m 0,-383.772 c -70.922,0 -134.67,53.98 -134.67,141.782 0,91.729 64.415,142.465 134.67,142.465 70.255,0 135.301,-51.394 135.301,-142.465 0,-87.802 -64.414,-141.782 -135.301,-141.782"
             style="fill:#2c0080;fill-opacity:1;fill-rule:nonzero;stroke:none"
             id="path13451" />
        </g>
      </g>
    </g>
  </g>
</svg>
