<?xml version="1.0" encoding="UTF-8" standalone="no"?>
<!-- Created with Inkscape (http://www.inkscape.org/) -->

<svg
   version="1.1"
   id="svg132"
   width="104.70215"
   height="94.391602"
   viewBox="0 0 104.70215 94.391602"
   sodipodi:docname="231108_Timeline_recrutment_Forpro_sd.pdf"
   xmlns:inkscape="http://www.inkscape.org/namespaces/inkscape"
   xmlns:sodipodi="http://sodipodi.sourceforge.net/DTD/sodipodi-0.dtd"
   xmlns="http://www.w3.org/2000/svg"
   xmlns:svg="http://www.w3.org/2000/svg">
  <defs
     id="defs136" />
  <sodipodi:namedview
     id="namedview134"
     pagecolor="#ffffff"
     bordercolor="#000000"
     borderopacity="0.25"
     inkscape:showpageshadow="2"
     inkscape:pageopacity="0.0"
     inkscape:pagecheckerboard="0"
     inkscape:deskcolor="#d1d1d1"
     showgrid="false"
     inkscape:lockguides="true" />
  <g
     id="g140"
     inkscape:groupmode="layer"
     inkscape:label="Page 1"
     transform="matrix(1.3333333,0,0,-1.3333333,-1914.4568,1588.2897)">
    <g
       id="g414"
       transform="translate(1514.3692,1148.5677)">
      <path
         d="m 0,0 -19.384,19.384 c -4.155,4.155 -7.788,11.272 -10.884,14.999 -3.096,3.727 -4.816,5.41 -8.048,7.371 -3.232,1.96 -8.064,0.634 -8.686,-3.298 -0.621,-3.931 2.323,-7.348 0.666,-8.791 -1.382,-1.205 -3.079,0.833 -5.712,3.466 -3.754,3.754 -13.551,11.724 -21.776,3.499 -8.721,-8.721 -2.915,-17.991 -1.468,-20.137 1.446,-2.146 6.952,-9.373 13.522,-14.963 6.571,-5.59 13.251,-8.908 17.413,-12.65 4.162,-3.742 17.024,-17.024 17.024,-17.024 z"
         style="fill:#005aff;fill-opacity:1;fill-rule:nonzero;stroke:none"
         id="path416" />
    </g>
  </g>
</svg>
